<svg xmlns="http://www.w3.org/2000/svg" viewBox="0 0 404 508"><title>Green Jelly</title><g id="Tentacles"><path d="M336.14,348.9c-24.73-56.15,25.79-78.78-21.64-141.84-3.73-4.59-8.3,1.08-12.29,2.43-.66-4,1-11.22-3.77-12.87-2.38-5.19-3.74-17.69-11.58-15.34a51.32,51.32,0,0,0-3.78-11.7c-2.21-4.75-8.91-.58-6.71,4.16,1.77,4.66,4.63,8.84.84,12.87-5,10.32-6.25,25.13-18.5,27A7,7,0,0,0,248,207.33c-1.11-6.64-5.21-16.67-12.9-11.41-4.45-3.8-12.63-.49-11.19,6.19-3.35-7.92-.36-17.56-3.72-26.22-1.34-5.09-8.84-2.93-7.49,2.19,3,12.87,1.63,24.11,0,37-2.78-1.17-6.1-.68-7.82,2.13-6.07-5.4-6.48-39.61-16.77-31.11a24.4,24.4,0,0,1-1.2-13.08c1.71-10.86-13.85-12.25-13.51-1.42a128.16,128.16,0,0,0-3.76-13c-1.71-4.93-9.22-2.8-7.49,2.18,6.36,18.28,4.9,27.26,3.78,46.2-5.4-4.5-9.64,3.66-9,10-.6-6-.93-4.4-2.88-10.22-1.65-5-9.16-2.83-7.49,2.18,19.58,95.18-68.77,126.43,5.12,227.19.73,4.05,6.59,3.8,7.48,0,5.89-24.91-9.06-47.2-13-71.09-.46-58.38,38.7-112,30.58-172,40,50.09-16.1,105.31-8.82,160.53,6,39.12,22.51,79.66,3.78,118-1.08,2.55.11,6.5,3.35,6.19,17.55-4.85,18.68-30.32,26-44.72,12.87-40.52,24.26-83.79,18.25-126.59-8.88-31.1-6.05-62.17,1.56-93.19,23.76,52-12.94,60.28,14.67,135.19,6.47,18.67-22,64.59-6.35,58.67,65.35-40.33,15.12-81.4,27.72-130.09,8-25,25.49-46.18,29.82-72.44,7.35,21.23,4.57,42.92-8.5,61.26-49.52,78.42,83.4,77.41-17.15,164.11-13.71,15.3-24.46,37.29-15.28,58,.23,3.47,5.16,5.66,7.23,1.86,10.95-18.12,34.1-18.83,50.53-29.72C344,439.12,357.54,388.72,336.14,348.9Z" style="fill:#39b54a;stroke:#2a4f3f;stroke-miterlimit:10;stroke-width:4px"/><path d="M148.26,484.88c-36.72-73.06-63.44-121.37-17.53-199.64,13.42-31.33-3.58-63.9,5.82-95.35-.27-29.71-44.37,14.08-38.68,28-.79-6.62-12.56-20.65-11.85-6.41,13.8,19.62,7.19,42.91-6.9,60.21-34.34,52-19.05,119.93,21.18,164,13.56,17.43,27.89,34.27,38.87,53.73C141.78,494,149.75,489.26,148.26,484.88Z" style="fill:#39b54a;stroke:#2a4f3f;stroke-miterlimit:10;stroke-width:4px"/></g><g id="Body"><path d="M351.88,138.26C341.8,36.46,231.4-15.92,140.48,20.39,75.35,37.19,42,99,52.12,163.53,54.63,188.23,55.21,226,84,234.3c10.3,1.91,27.55-6.26,28.55-17.45-1.92-12.94,15.5-16.68,18.66-4,2.91,13.42,17.72,25.63,30.72,16.22,7.75-3.55,12.7-25.65,20.72-23.13,6.07,8.42,8.25,19.88,18.81,24.26,11.81,5.09,22.66-2.12,28.84-12.07,2.84-4.54,3.81-9.6,7.79-13.45,1.27,20,28.4,32.55,40.4,13.7,4-5.51,3.32-19.52,13.4-12.64,7.78,4.71,4.88,19.4,14.3,21.44C348.57,247.27,355.57,164.77,351.88,138.26Z" style="fill:#7ac943;stroke:#2a4f3f;stroke-miterlimit:10;stroke-width:3px"/><path d="M304.37,125.32a76.21,76.21,0,0,1-11.1,5.56c-.16-.31-.35-.62-.53-.92a15.71,15.71,0,0,0,7.6-6.8c2-3.6-3.52-6.83-5.53-3.23a9.22,9.22,0,0,1-5.57,4.48,83.77,83.77,0,0,0-7-10.22c-4.84-5.86-11.18-10.22-18.94-10.82C245.7,102,233.59,116.79,226,130.72c-2,3.61,3.55,6.85,5.53,3.23,6.16-11.31,15.13-23.91,29.38-24.24,7-.16,12.54,3.74,16.82,9a73.54,73.54,0,0,1,5.59,8.27c.46.74,1.26,1.92,2.07,3.16a23.91,23.91,0,0,1,1.56,4.69,2.68,2.68,0,0,0,.6,1.95l.05.07,0,0,.27.35c.8,1.06,2.19,2,3.61,1.47l.63-.24a3.83,3.83,0,0,0,1.36-.82,82.87,82.87,0,0,0,14.11-6.79C311.12,128.71,307.91,123.18,304.37,125.32Z" style="fill:#2a4f3f"/><path d="M190.27,134.13c-3-15.76-18.67-27.84-34.79-26-13.21,1.51-23.83,12.1-26.93,24.64a19.19,19.19,0,0,1-10-2.38c-3.61-2-6.85,3.54-3.23,5.53a26,26,0,0,0,12.35,3.28c0,.32,0,.64,0,1a25.18,25.18,0,0,1-13.29-3.49c-3.57-2.08-6.79,3.45-3.23,5.52a31.36,31.36,0,0,0,18.44,4.28,3.16,3.16,0,0,0,2.31-1.2,2.68,2.68,0,0,0,2.23-3c-.91-13.34,9.07-26.74,22.85-27.89,13-1.09,24.78,9,27.16,21.43C184.87,139.87,191,138.16,190.27,134.13Z" style="fill:#2a4f3f"/></g></svg>