<svg xmlns="http://www.w3.org/2000/svg" viewBox="0 0 404 508"><title>Orange Jelly</title><g id="Tentacles"><path d="M336.34,360.13C311.61,304,362.13,281.34,314.7,218.29c-3.73-4.6-8.3,1.08-12.29,2.43-.66-4,1-11.23-3.77-12.87-2.38-5.19-3.74-17.69-11.58-15.34a51.16,51.16,0,0,0-3.78-11.7c-2.21-4.75-8.91-.59-6.71,4.15,1.77,4.67,4.63,8.84.83,12.87-5,10.32-6.24,25.14-18.5,27a7,7,0,0,0-10.66-6.28c-1.11-6.64-5.22-16.66-12.9-11.41-4.45-3.79-12.63-.48-11.19,6.2-3.35-7.92-.36-17.57-3.72-26.22-1.34-5.09-8.84-2.93-7.49,2.19,3,12.86,1.63,24.1,0,37-2.77-1.18-6.09-.68-7.81,2.12-6.07-5.39-6.48-39.6-16.77-31.11a24.38,24.38,0,0,1-1.2-13.08c1.71-10.86-13.85-12.24-13.51-1.41a129.09,129.09,0,0,0-3.76-13c-1.71-4.93-9.22-2.8-7.49,2.19,6.36,18.27.7,12-.42,31-5.4-4.5-3.64,3.66-3,10-.6-6-6.05-7.17-8-13-1.66-5-5.84,15.18-4.17,20.19,19.58,95.17-68.77,126.43,5.12,227.19.72,4.05,6.59,3.79,7.48,0,5.89-24.91-9.06-47.21-13-71.09-.46-58.38,38.7-112,30.58-172,40,50.09-16.1,105.32-8.82,160.54,6,39.11,22.51,79.65,3.78,118-1.08,2.55.11,6.5,3.35,6.19,17.55-4.86,18.68-30.33,26-44.72C214.14,403.76,203,391.81,197,349c-8.88-31.1,16.48-93.49,24.09-124.5,23.76,52-7.7,36.59,19.91,111.5,6.48,18.68-23.62,112.92-8,107,65.34-40.33,11.53-106,24.13-154.73,8-25,25.49-46.19,29.82-72.45,7.35,21.24,20.12,49.85,7.05,68.18-49.52,78.42,67.85,70.5-32.7,157.2-13.71,15.3-24.46,37.29-15.29,58.05.23,3.47,5.17,5.66,7.24,1.86C264.19,483,284.57,457.88,301,447,341.37,426,357.74,400,336.34,360.13Z" style="fill:#f0834b;stroke:#f7534f;stroke-miterlimit:10;stroke-width:4px"/><path d="M148.46,489.11C111.74,416,85,367.74,130.93,289.46c13.42-31.33-3.58-63.89,5.82-95.35-.27-29.71-25.11-19.33-23.75-3.11-10.41-18.33-20.62,17.2-14.93,31.08-.79-6.62-12.57-20.65-11.85-6.41C100,235.29,84.09,291.7,70,309c-34.34,52-9.73,86.81,30.5,130.85,13.56,17.42,27.89,34.27,38.87,53.73C142,498.23,150,493.49,148.46,489.11Z" style="fill:#f0834b;stroke:#f7534f;stroke-miterlimit:10;stroke-width:4px"/></g><g id="Body"><path d="M352.08,142.48C342,40.69,231.6-11.69,140.68,24.62,75.55,41.41,42.24,103.19,52.32,167.76c2.5,24.69,3.09,62.49,31.87,70.76,10.29,1.92,27.55-6.26,28.55-17.44-1.92-13,15.5-16.69,18.66-4,2.91,13.42,17.72,25.62,30.72,16.21,7.75-3.54,12.69-25.64,20.72-23.12,6.07,8.42,8.25,19.88,18.81,24.26,11.81,5.09,22.66-2.13,28.84-12.08,2.83-4.53,3.81-9.59,7.79-13.44,1.27,20,28.39,32.55,40.4,13.69,4-5.51,3.32-19.52,13.4-12.63,7.78,4.71,4.88,19.39,14.3,21.44C348.76,251.5,355.77,169,352.08,142.48Z" style="fill:#f0ce32;stroke:#f7534f;stroke-miterlimit:10;stroke-width:3px"/><path d="M304.57,129.55a76.21,76.21,0,0,1-11.1,5.56c-.17-.32-.35-.62-.53-.93a15.69,15.69,0,0,0,7.6-6.79c2-3.6-3.52-6.83-5.53-3.23a9.25,9.25,0,0,1-5.57,4.48,83.85,83.85,0,0,0-7-10.22c-4.83-5.87-11.17-10.22-18.93-10.82-17.62-1.36-29.73,13.42-37.32,27.34-2,3.62,3.55,6.86,5.53,3.23,6.16-11.3,15.13-23.9,29.38-24.23,7-.16,12.54,3.74,16.82,9a73.42,73.42,0,0,1,5.59,8.26c.46.75,1.25,1.92,2.07,3.17a23.82,23.82,0,0,1,1.56,4.68,2.63,2.63,0,0,0,.6,1.95l.05.07,0,0,.27.36c.8,1.06,2.19,2,3.61,1.47l.63-.24a3.94,3.94,0,0,0,1.35-.82,83,83,0,0,0,14.12-6.8C311.32,132.94,308.11,127.4,304.57,129.55Z" style="fill:#f7534f"/><path d="M190.46,138.35c-3-15.75-18.66-27.83-34.78-26-13.21,1.51-23.83,12.1-26.93,24.64a19.38,19.38,0,0,1-10-2.38c-3.62-2-6.85,3.54-3.23,5.52a25.74,25.74,0,0,0,12.35,3.28c0,.32,0,.64,0,1a25.06,25.06,0,0,1-13.29-3.49c-3.57-2.08-6.8,3.45-3.23,5.53a31.43,31.43,0,0,0,18.44,4.28,3.16,3.16,0,0,0,2.31-1.2,2.7,2.7,0,0,0,2.23-3c-.91-13.34,9.07-26.74,22.85-27.9,13-1.08,24.77,9,27.16,21.43C185.07,144.09,191.24,142.38,190.46,138.35Z" style="fill:#f7534f"/></g></svg>