<svg xmlns="http://www.w3.org/2000/svg" viewBox="0 0 404 508"><title>Purple Jelly</title><g id="Tentacles"><path d="M337,355.82C312.31,299.67,362.82,277,315.4,214c-3.74-4.59-8.3,1.08-12.3,2.43-.65-4,1-11.22-3.76-12.87-2.39-5.19-3.75-17.69-11.58-15.34A51.12,51.12,0,0,0,284,176.51c-2.2-4.76-8.91-.59-6.71,4.15,1.78,4.66,4.63,8.84.84,12.87-5,10.32-6.24,25.13-18.5,27a7,7,0,0,0-10.67-6.27c-1.11-6.64-5.21-16.67-12.9-11.41-4.45-3.8-12.62-.49-11.18,6.19-3.36-7.92-.37-17.56-3.73-26.22-1.34-5.09-8.83-2.93-7.49,2.19,3,12.87,1.63,24.11,0,37-2.77-1.17-6.1-.68-7.82,2.13-6.06-5.4-6.48-39.61-16.76-31.11A24.41,24.41,0,0,1,187.87,180c1.71-10.86-13.84-12.25-13.51-1.42a128.11,128.11,0,0,0-3.75-13c-1.72-4.93-9.23-2.8-7.49,2.18,6.35,18.28,8.09,37.24,7,56.18-5.4-4.5-12,1.29-11.33,7.62A81.26,81.26,0,0,0,155,213.7c-1.66-5-9.17-2.83-7.49,2.18,19.57,95.18-68.77,126.44,5.11,227.19.73,4.05,6.59,3.8,7.48,0,5.9-24.91-9.06-47.2-13-71.09-.46-58.38,38.71-112,30.58-172,40.05,50.09-16.1,105.31-8.82,160.53,6,39.12,22.52,79.66,3.78,118-1.07,2.55.12,6.5,3.36,6.19,17.54-4.85,18.68-30.32,26-44.72,12.86-40.52,24.25-83.79,18.24-126.59-8.88-31.1-6.05-62.17,1.57-93.19,23.75,52-12.95,60.28,14.66,135.19,6.48,18.67-22,64.59-6.34,58.67,65.34-40.33,15.11-81.4,27.71-130.09,8-25,25.5-46.18,29.83-72.44,7.34,21.23,4.56,42.92-8.51,61.26C229.62,351.2,362.55,350.19,262,436.89c-13.71,15.3-24.45,37.29-15.28,58.05.23,3.47,5.17,5.66,7.23,1.86,10.95-18.12,34.11-18.83,50.54-29.72C344.84,446,358.43,395.64,337,355.82Z" style="fill:#b2446d;stroke:#fff395;stroke-miterlimit:10;stroke-width:4px"/><path d="M168.09,238.34a31.78,31.78,0,0,0-3.94-11.08,23.53,23.53,0,0,0-3.06-9.39l-.21-1.44a2.43,2.43,0,0,0-2-2.24q-.54-3.06-1.22-6.11c-.66-3-4.2-2.8-5.64-.89-3.54-3.32-7.64-6.45-11.78-7.83-11-3.68-20.83,4.81-21.21,15.22-.52.52-1,1-1.51,1.56a3.26,3.26,0,0,0,0,4.53l2.1,2.19c2.22,2.29,5.4.1,5.42-2.38a3,3,0,0,0,.65-2.8c0-.18-.08-.36-.11-.54,6.66-6.15,15-10.87,22.82-2.95a30.65,30.65,0,0,1,5.13,7.2,2.86,2.86,0,0,0,.37,3.1,127.16,127.16,0,0,1-.76,32.6c-.62,4,5.55,5.77,6.17,1.7.12-.77.23-1.54.33-2.32,2,1.74,6,0,5.27-3.3-.27-1.19-.52-2.38-.77-3.58a3.33,3.33,0,0,0,1-2.94l-.27-1.89a3.24,3.24,0,0,0,1.44-2.92A3.34,3.34,0,0,0,168.09,238.34Z" style="fill:#b2446d"/><path d="M175.11,225.77l-2.73-18.83A6.19,6.19,0,0,0,169,202.5c-2.52-10-7.17-20.17-16.64-24.91-12.34-6.18-25.64,1.95-33,11.93a41.57,41.57,0,0,0-7,33.81c2,9.39,16.46,5.41,14.4-4a26.29,26.29,0,0,1,4.6-21.1c3.62-4.9,10.76-10.93,16.45-5.81,3.43,3.1,5.36,7.73,6.6,12.52-3.05.93-5.92,3.87-5.49,7.16L154,250.72c.54,4,3.05,7.42,7.47,7.47a8.11,8.11,0,0,0,7.19-5,8,8,0,0,0,1-1.49c3.2-5.84,3.77-12,3.38-18.5A8.53,8.53,0,0,0,175.11,225.77Z" style="fill:#b2446d"/><path d="M149.15,484.8c-36.71-73.06-63.44-121.37-17.53-199.64,13.42-31.33-3.57-63.9,5.83-95.35-.28-29.71-21.35-4.51-20,11.72-10.41-18.33-24.39,2.36-18.69,16.24-.8-6.62-12.57-20.65-11.86-6.41,13.8,19.63,7.2,42.91-6.9,60.21-34.33,52-19,119.93,21.18,164,13.56,17.43,27.89,34.27,38.87,53.73C142.68,493.93,150.65,489.18,149.15,484.8Z" style="fill:#b2446d;stroke:#fff395;stroke-miterlimit:10;stroke-width:4px"/><path d="M122.71,183.18a3.36,3.36,0,0,0-6,1.81l-.16,2.31-2.06,1.46c-1.92-1.28-5.17-.47-5,2.49,0,.38,0,.76.07,1.15-4.14,3.09-8.18,6.32-12,9.75-.18-.44-.35-.89-.53-1.33-1.55-3.76-7.74-2.11-6.17,1.7.56,1.37,1.09,2.75,1.63,4.13A2.65,2.65,0,0,0,91.33,210a1.17,1.17,0,0,0,0,.11,8.06,8.06,0,0,0-.23,3.27c.65,4.75,4.13,9.64,6.18,13.91a2.62,2.62,0,0,0,2.85,1.6c.15.4.29.8.45,1.2q1.47,4.95,2.76,9.95c1,4,7.2,2.3,6.17-1.7-.16-.65-.34-1.3-.51-1.94a3.19,3.19,0,0,0,0-2.92c-.83-1.72-1.59-3.46-2.3-5.21q-1.9-6.4-4.1-12.7-.78-3.18-1.35-6.44a3.11,3.11,0,0,0-.55-1.29,62.35,62.35,0,0,1,5.1-4.25q2.14-1.77,4.33-3.49a123.85,123.85,0,0,0,4.61,22.23c1.2,3.93,7.38,2.25,6.17-1.7-.1-.32-.18-.65-.28-1a1.57,1.57,0,0,0,0-.3q1-14.3,2-28.57c.81-.57,1.61-1.15,2.43-1.71C128.28,187,125.79,182.07,122.71,183.18Z" style="fill:#b2446d"/></g><g id="Body"><path d="M352.78,138.18C342.69,36.38,232.29-16,141.37,20.31,76.24,37.11,42.93,98.88,53,163.45c2.5,24.7,3.08,62.5,31.87,70.77,10.29,1.91,27.55-6.26,28.54-17.45-1.91-12.94,15.51-16.68,18.66-4,2.91,13.42,17.73,25.63,30.72,16.22,7.76-3.55,12.7-25.65,20.73-23.13,6.07,8.42,8.25,19.88,18.8,24.26C214.16,235.2,225,228,231.18,218c2.84-4.54,3.82-9.6,7.79-13.45,1.27,20,28.4,32.55,40.41,13.7,4-5.51,3.32-19.52,13.39-12.64,7.79,4.71,4.89,19.4,14.3,21.44C349.46,247.19,356.46,164.69,352.78,138.18Z" style="fill:#ff7bac;stroke:#fff395;stroke-miterlimit:10;stroke-width:3px"/><path d="M305.27,125.24a76.31,76.31,0,0,1-11.11,5.56c-.16-.31-.35-.62-.53-.92a15.67,15.67,0,0,0,7.6-6.8c2-3.6-3.52-6.83-5.52-3.23a9.27,9.27,0,0,1-5.58,4.48,82.66,82.66,0,0,0-7-10.22c-4.84-5.86-11.18-10.22-18.93-10.82-17.62-1.36-29.73,13.42-37.32,27.35-2,3.62,3.55,6.85,5.52,3.23,6.17-11.31,15.14-23.91,29.38-24.24,7-.16,12.54,3.74,16.82,9a72.3,72.3,0,0,1,5.6,8.27c.45.74,1.25,1.92,2.06,3.16a22.66,22.66,0,0,1,1.56,4.69,2.68,2.68,0,0,0,.6,2l.06.07v0l.27.35c.81,1.06,2.2,2,3.62,1.47l.63-.23a4,4,0,0,0,1.35-.83,83.33,83.33,0,0,0,14.12-6.79C312,128.64,308.8,123.1,305.27,125.24Z" style="fill:#fff395"/><path d="M191.16,134.05c-3-15.76-18.67-27.83-34.78-26-13.22,1.51-23.83,12.1-26.94,24.65a19.32,19.32,0,0,1-10-2.39c-3.61-2-6.84,3.54-3.23,5.53a26,26,0,0,0,12.36,3.28c0,.32,0,.64,0,1a25.2,25.2,0,0,1-13.29-3.49c-3.56-2.08-6.79,3.45-3.23,5.52a31.37,31.37,0,0,0,18.44,4.28,3.16,3.16,0,0,0,2.31-1.2,2.68,2.68,0,0,0,2.23-3c-.9-13.34,9.07-26.74,22.85-27.89,13-1.09,24.78,9,27.17,21.43C185.76,139.79,191.93,138.08,191.16,134.05Z" style="fill:#fff395"/></g></svg>