<?xml version="1.0" encoding="UTF-8"?>
<svg width="25px" height="13px" viewBox="0 0 25 13" version="1.1" xmlns="http://www.w3.org/2000/svg" xmlns:xlink="http://www.w3.org/1999/xlink">
    <!-- Generator: Sketch 63 (92445) - https://sketch.com -->
    <title>Single_Cookie</title>
    <desc>Created with Sketch.</desc>
    <g id="Page-1" stroke="none" stroke-width="1" fill="none" fill-rule="evenodd">
        <g id="Stage_2" transform="translate(-422.000000, -350.000000)" fill-rule="nonzero">
            <g id="Single_Cookie" transform="translate(422.000000, 351.000000)">
                <path d="M17.46,2 C17.6126952,1.98021595 17.7673048,1.98021595 17.92,2 C17.7884473,1.76600837 17.7325557,1.49702998 17.76,1.23 L17.49,1.23 L17.38,1.23 L17.02,1.23 C16.6659791,0.945432739 16.2625874,0.728482588 15.83,0.59 C15.7211134,0.564298324 15.6109649,0.544271329 15.5,0.53 C15.236675,0.675194612 14.9407004,0.750909055 14.64,0.75 C14.4004725,0.752145107 14.1627856,0.708003247 13.94,0.62 C13.94,0.62 13.94,0.62 13.94,0.62 C13.7606476,0.550258331 13.5973419,0.444790068 13.46,0.31 L13.32,0.24 C12.9440484,0.120103617 12.5541242,0.0495138911 12.16,0.03 C11.7628569,0.00991801083 11.3649701,0.0503810774 10.98,0.15 C10.89,0.15 10.36,0.37 10.05,0.5 L10.05,0.5 L9.81,0.41 C9.27949336,0.295006451 8.73050664,0.295006451 8.2,0.41 C7.70300926,0.503925873 7.21940389,0.658410922 6.76,0.87 L6.63,0.87 C6.15649416,0.941718978 5.69100688,1.05892801 5.24,1.22 C4.63633589,1.42774957 4.05372889,1.69226654 3.5,2.01 C3.07539432,2.26083631 2.75843492,2.65970657 2.61,3.13 C2.37,3.29 2.12,3.46 1.89,3.63 C0.960385577,4.20716143 0.644207205,5.41039579 1.17,6.37 C1.40666147,6.74590463 1.75693406,7.03663088 2.17,7.2 C3.02083308,8.09044373 4.13592393,8.68305491 5.35,8.89 C6.76,9.12 8.15,8.68 9.56,8.94 C11.0955665,9.28426451 12.6797713,9.35535062 14.24,9.15 L14.92,9.04 C14.8328665,8.87631292 14.7689207,8.70130329 14.73,8.52 C14.66,8.52 14.59,8.44 14.53,8.39 C14.4777804,8.34179302 14.4308486,8.28815664 14.39,8.23 C14.3498457,8.17566773 14.3131082,8.11889154 14.28,8.06 C14.2413601,7.99050561 14.2111467,7.91665067 14.19,7.84 C14.1803652,7.76029009 14.1803652,7.67970991 14.19,7.6 C14.1950556,7.48149118 14.2257619,7.36548992 14.28,7.26 C14.3115511,7.19231337 14.3556655,7.13123194 14.41,7.08 L14.41,7.08 L14.55,6.98 L14.77,6.88 L14.83,6.88 L15.03,6.88 C15.1230694,6.87007301 15.2169306,6.87007301 15.31,6.88 L15.46,6.93 L15.56,6.93 C15.5213358,6.82037111 15.497786,6.70598616 15.49,6.59 C15.44,6.59 15.38,6.59 15.34,6.52 C14.9384396,6.32156405 14.7178125,5.88030988 14.8,5.44 C14.8679462,5.22244256 15.0048373,5.03290111 15.19,4.9 C15.3018052,4.80544507 15.4223477,4.72173504 15.55,4.65 C15.7203364,4.56083411 15.9079798,4.50965864 16.1,4.5 C16.3988587,4.48835309 16.6972745,4.53243723 16.98,4.63 L17.16,4.7 L17.16,4.7 C17.0728276,4.48960741 17.0188513,4.26695527 17,4.04 C16.8959521,3.93356444 16.8083254,3.81223517 16.74,3.68 C16.5746554,3.3671708 16.5746554,2.9928292 16.74,2.68 C16.8528514,2.34825932 17.1223571,2.09372619 17.46,2 L17.46,2 Z" id="Path" stroke="#E4BF93" stroke-width="0.5" fill="#E4BF93"></path>
                <path d="M4.1,3 C3.27157288,3 2.6,3.67157288 2.6,4.5 C2.6,5.32842712 3.27157288,6 4.1,6 C4.92842712,6 5.6,5.32842712 5.6,4.5 C5.6,3.67157288 4.92842712,3 4.1,3 Z" id="Path" fill="#715445"></path>
                <path d="M13.4,1.65 C12.5715729,1.65 11.9,2.32157288 11.9,3.15 C11.9,3.97842712 12.5715729,4.65 13.4,4.65 C14.2284271,4.65 14.9,3.97842712 14.9,3.15 C14.9,2.32157288 14.2284271,1.65 13.4,1.65 Z" id="Path" fill="#715445"></path>
                <path d="M8.78,4.75 C8.00680135,4.75 7.38,5.37680135 7.38,6.15 C7.38,6.92319865 8.00680135,7.55 8.78,7.55 C9.55319865,7.55 10.18,6.92319865 10.18,6.15 C10.18,5.37680135 9.55319865,4.75 8.78,4.75 L8.78,4.75 Z" id="Path" fill="#715445"></path>
                <path d="M21.31,9 C21.1313945,8.99777253 20.9676467,9.09914017 20.89,9.26 C20.6301117,9.07758128 20.3172181,8.98617416 20,9 C19.1715729,9 18.5,9.67157288 18.5,10.5 C18.5,11.3284271 19.1715729,12 20,12 C20.4845497,11.9996273 20.9377921,11.7604932 21.2116245,11.3607378 C21.485457,10.9609824 21.5447018,10.45196 21.37,10 C21.6461424,9.98343146 21.8565685,9.74614237 21.84,9.47 C21.8234315,9.19385763 21.5861424,8.98343146 21.31,9 L21.31,9 Z" id="Path" fill="#E4BF93"></path>
                <path d="M21,7.37 C20.7238576,7.37 20.5,7.59385763 20.5,7.87 C20.5,8.14614237 20.7238576,8.37 21,8.37 C21.2761424,8.37 21.5,8.14614237 21.5,7.87 C21.5,7.59385763 21.2761424,7.37 21,7.37 Z" id="Path" fill="#E4BF93"></path>
                <path d="M23.92,9.66 C23.6438576,9.66 23.42,9.88385763 23.42,10.16 C23.42,10.4361424 23.6438576,10.66 23.92,10.66 C24.1961424,10.66 24.42,10.4361424 24.42,10.16 C24.42,9.88385763 24.1961424,9.66 23.92,9.66 Z" id="Path" fill="#E4BF93"></path>
                <path d="M16.91,11.33 C16.8828687,11.2452423 16.8386215,11.1669588 16.78,11.1 L16.68,11.03 C16.6017868,10.9823387 16.5115702,10.9580496 16.42,10.96 L16.1,10.96 C16.0341774,10.9449976 15.9658226,10.9449976 15.9,10.96 C15.8412114,10.9836853 15.7870515,11.0175353 15.74,11.06 C15.6918992,11.106575 15.6573379,11.1653292 15.64,11.23 C15.620113,11.2917722 15.620113,11.3582278 15.64,11.42 L15.64,11.55 C15.6572699,11.6336211 15.6990443,11.7102075 15.76,11.77 L15.86,11.85 C15.9382132,11.8976613 16.0284298,11.9219504 16.12,11.92 L16.44,11.92 C16.5058226,11.9350024 16.5741774,11.9350024 16.64,11.92 C16.701193,11.8963338 16.7559905,11.8586605 16.8,11.81 C16.8477606,11.7671689 16.882429,11.7116995 16.9,11.65 C16.919887,11.5882278 16.919887,11.5217722 16.9,11.46 L16.91,11.33 Z" id="Path" fill="#E4BF93"></path>
                <path d="M22.61,4.12 C22.3338576,4.12 22.11,4.34385763 22.11,4.62 C22.11,4.89614237 22.3338576,5.12 22.61,5.12 C22.8861424,5.12 23.11,4.89614237 23.11,4.62 C23.11,4.34385763 22.8861424,4.12 22.61,4.12 Z" id="Path" fill="#E4BF93"></path>
            </g>
        </g>
    </g>
</svg>