<svg xmlns="http://www.w3.org/2000/svg" viewBox="0 0 3000 608"><title>Waves Inside</title><g id="Water_BG" data-name="Water BG"><path d="M2999.5,506H-.5s-40.88-78.22,0-84.8c98-15.78,201-43.79,273-47.82,209.88-11.76,629.07,38,839.36,47.82,190.7,8.95,591.1,36,782.64,34.51,145.94-1.13,432.52-47.14,575-52.75,134-5.27,376,3.94,530,18.24C3041.76,425.12,2999.5,506,2999.5,506Z" style="fill:#3f758e"/><path d="M2999.69,270.29S2168.53,317.46,1894,317.46c-207.2,0-608.8,18.74-816,18.74C809.73,336.2-.31,270.29-.31,270.29s-40.87-78.22,0-84.8C97.69,169.71,388,211,494,217.87c209.42,13.64,407.76-42.24,618.05-32.38,190.71,8.94,591.1,36,782.64,34.51,145.94-1.13,432.52-47.15,575-52.75,134-5.27,376,3.94,530,18.24C3042,189.41,2999.69,270.29,2999.69,270.29Z" style="fill:#3f758e;opacity:0.8"/><path d="M2999.69,344.29S2168.53,391.46,1894,391.46c-207.2,0-608.8,18.74-816,18.74C809.73,410.2-.31,344.29-.31,344.29s-40.87-78.22,0-84.8C97.69,243.71,388,285,494,291.87c209.42,13.64,407.76-42.24,618.05-32.38,190.71,8.94,591.1,36,782.64,34.51,145.94-1.13,432.52-47.15,575-52.75,134-5.27,376,3.94,530,18.24C3042,263.41,2999.69,344.29,2999.69,344.29Z" style="fill:#3f758e;opacity:0.8"/></g><g id="Layer_2" data-name="Layer 2"><path d="M3000,606.75c-196-6.41-838.38-130.35-1079-137.55-253.88-7.59-210,44.81-590,67.54-400.63,24-542.43-28.7-938,5.92C224.73,557.38,169,591.47,6,606.75" style="fill:#559fc1;opacity:0.8"/></g><g id="Layer_3" data-name="Layer 3"><path d="M2999.69,129.21s-868.25,11.58-1176.19.62c-251-8.93-808.36-54.25-1060-52.26C570.79,79.09-.31,129.21-.31,129.21s-40.87,78.22,0,84.8c38.36,6.17,475-42.93,1010.81-41.78,463.23,1,994.05,102,1391,99.59,317.08-1.9,556.57-53.95,598.19-57.81C3042,210.08,2999.69,129.21,2999.69,129.21Z" style="fill:#559fc1;opacity:0.7000000000000001"/><path d="M2999.69,207.21s-868.25,11.58-1176.19.62c-251-8.93-808.36-54.25-1060-52.26C570.79,157.09-.31,207.21-.31,207.21s-40.87,78.22,0,84.8c38.36,6.17,475-42.93,1010.81-41.78,463.23,1,994.05,102,1391,99.59,317.08-1.9,556.57-53.95,598.19-57.81C3042,288.08,2999.69,207.21,2999.69,207.21Z" style="fill:#559fc1;opacity:0.7000000000000001"/><path d="M2999.69,430.84S2130.94,567.09,1823,578.05C1572,587-.31,430.84-.31,430.84s-40.87-78.22,0-84.8c38.36-6.17,492.54,10.16,1028.31,9,463.23-1,1930.07-12.87,1971.69-9C3042,350,2999.69,430.84,2999.69,430.84Z" style="fill:#559fc1;opacity:0.7000000000000001"/><path d="M2999.69,606.49S2168.53,661.84,1894,661.84c-207.2,0-608.8,22-816,22C809.73,683.82-.31,606.49-.31,606.49s-40.87-91.78,0-99.5c98-18.52,902.07-11.58,1112.36,0,190.71,10.49,591.1,42.24,782.64,40.49C2040.63,546.15,2326.52,441.58,2469,435c134-6.18,376.69,55.21,530.69,72C3042,511.59,2999.69,606.49,2999.69,606.49Z" style="fill:#3f758e;opacity:0.8"/></g></svg>