<?xml version="1.0" encoding="UTF-8"?>
<svg width="53px" height="23px" viewBox="0 0 53 23" version="1.1" xmlns="http://www.w3.org/2000/svg" xmlns:xlink="http://www.w3.org/1999/xlink">
    <!-- Generator: Sketch 63 (92445) - https://sketch.com -->
    <title>Wrench</title>
    <desc>Created with Sketch.</desc>
    <g id="Page-1" stroke="none" stroke-width="1" fill="none" fill-rule="evenodd">
        <g id="Stage_2" transform="translate(-626.000000, -262.000000)" fill="#999999" fill-rule="nonzero" stroke="#000000" stroke-width="3">
            <g id="Wrench" transform="translate(627.000000, 264.000000)">
                <path d="M50.28,12.09 L50.28,12.09 C50.69,10.83 49.04,11.09 48.28,11.24 C46.96,11.32 45.57,11.58 44.21,11.6 C42.11,12.08 42.35,10.4 42.27,8.93 C41.96,7.16 41.51,6.24 43.84,6.18 C45.4714445,5.92010826 47.1184634,5.76977185 48.77,5.73 C49.0474921,5.74191581 49.3043394,5.58387167 49.4187746,5.33079373 C49.5332098,5.07771579 49.4822285,4.7804796 49.29,4.58 C48.74,0.58 42.29,-0.21 38.78,0.66 C35.5445253,1.28355622 32.9940647,3.77891429 32.3,7 C23.24,8.20666667 14.16,9.31333333 5.06,10.32 C4.55,8.81 2.37,8.79 1.35,9.92 C0.12,11.27 0.54,13.59 0.86,15.17 C1.18,16.75 2.11,18.83 4.02,19.24 C5.35,19.53 6.69,18.24 6.16,17.24 C15.16,16.08 24.16,15.09 33.24,14.54 C35.18,17.6 38.24,18.74 41.72,18.84 C45.72,18.85 51.61,16.64 50.28,12.09 Z" id="Path"></path>
            </g>
        </g>
    </g>
</svg>